{
  "accessors": [
    {
      "bufferView": 2,
      "componentType": 5126,
      "count": 3840,
      "max": [
        1.1404122114181519,
        0.9317482709884644,
        1.1195063591003418
      ],
      "min": [
        -1.0865554809570313,
        -0.2069578617811203,
        -1.0955603122711182
      ],
      "type": "VEC3"
    },
    {
      "bufferView": 2,
      "byteOffset": 46080,
      "componentType": 5126,
      "count": 3840,
      "max": [
        0.999893307685852,
        1.0,
        0.9999933242797852
      ],
      "min": [
        -0.9997968673706055,
        -1.0,
        -0.999893307685852
      ],
      "type": "VEC3"
    },
    {
      "bufferView": 1,
      "componentType": 5126,
      "count": 3840,
      "max": [
        0.9945929050445557,
        1.0000001192092896
      ],
      "min": [
        0.0,
        0.0
      ],
      "type": "VEC2"
    },
    {
      "bufferView": 0,
      "componentType": 5125,
      "count": 21816,
      "type": "SCALAR"
    },
    {
      "bufferView": 2,
      "byteOffset": 92160,
      "componentType": 5126,
      "count": 642,
      "max": [
        2.1414296627044678,
        0.18332737684249878,
        2.1414296627044678
      ],
      "min": [
        -2.1414296627044678,
        -0.06113635003566742,
        -2.1414296627044678
      ],
      "type": "VEC3"
    },
    {
      "bufferView": 2,
      "byteOffset": 99864,
      "componentType": 5126,
      "count": 642,
      "max": [
        0.9205049872398376,
        1.0,
        0.9205049872398376
      ],
      "min": [
        -0.9205049872398376,
        -1.0,
        -0.9205049872398376
      ],
      "type": "VEC3"
    },
    {
      "bufferView": 1,
      "byteOffset": 30720,
      "componentType": 5126,
      "count": 642,
      "max": [
        0.0,
        0.0
      ],
      "min": [
        0.0,
        0.0
      ],
      "type": "VEC2"
    },
    {
      "bufferView": 0,
      "byteOffset": 87264,
      "componentType": 5125,
      "count": 3840,
      "type": "SCALAR"
    },
    {
      "bufferView": 2,
      "byteOffset": 107568,
      "componentType": 5126,
      "count": 9690,
      "max": [
        0.4604260325431824,
        -0.5803544521331787,
        0.3388524651527405
      ],
      "min": [
        -0.4140058755874634,
        -0.9786170721054077,
        -0.48020613193511963
      ],
      "type": "VEC3"
    },
    {
      "bufferView": 2,
      "byteOffset": 223848,
      "componentType": 5126,
      "count": 9690,
      "max": [
        0.9991825819015503,
        0.9999996423721313,
        0.999631404876709
      ],
      "min": [
        -0.9985449910163879,
        -0.9999998807907104,
        -0.9998886585235596
      ],
      "type": "VEC3"
    },
    {
      "bufferView": 0,
      "byteOffset": 102624,
      "componentType": 5125,
      "count": 58128,
      "type": "SCALAR"
    }
  ],
  "asset": {
    "extras": {
      "author": "Felix Yadomi (https://sketchfab.com/felixyadomi)",
      "license": "CC-BY-4.0 (http://creativecommons.org/licenses/by/4.0/)",
      "source": "https://sketchfab.com/3d-models/pancake-foodswc4-8316d507d6334b14b7232e9b806a950e",
      "title": "Pancake - Food/SWC4"
    },
    "generator": "Sketchfab-12.57.0",
    "version": "2.0"
  },
  "bufferViews": [
    {
      "buffer": 0,
      "byteLength": 335136,
      "name": "floatBufferViews",
      "target": 34963
    },
    {
      "buffer": 0,
      "byteLength": 35856,
      "byteOffset": 335136,
      "byteStride": 8,
      "name": "floatBufferViews",
      "target": 34962
    },
    {
      "buffer": 0,
      "byteLength": 340128,
      "byteOffset": 370992,
      "byteStride": 12,
      "name": "floatBufferViews",
      "target": 34962
    }
  ],
  "buffers": [
    {
      "byteLength": 711120,
      "uri": "scene.bin"
    }
  ],
  "extensionsUsed": [
    "KHR_materials_clearcoat",
    "KHR_materials_transmission"
  ],
  "images": [
    {
      "uri": "textures/pancake_baseColor.png"
    }
  ],
  "materials": [
    {
      "doubleSided": true,
      "name": "pancake",
      "pbrMetallicRoughness": {
        "baseColorFactor": [
          0.7070445272739433,
          0.7070445272739433,
          0.7070445272739433,
          1.0
        ],
        "baseColorTexture": {
          "index": 0
        },
        "metallicFactor": 0.0,
        "roughnessFactor": 0.3665382674311843
      }
    },
    {
      "doubleSided": true,
      "name": "plate",
      "pbrMetallicRoughness": {
        "baseColorFactor": [
          0.24001893602907623,
          0.33247632785103237,
          0.3883895284377608,
          1.0
        ],
        "metallicFactor": 0.0,
        "roughnessFactor": 0.33005545387660296
      }
    },
    {
      "alphaMode": "BLEND",
      "doubleSided": true,
      "extensions": {
        "KHR_materials_clearcoat": {
          "clearcoatFactor": 0.9259414086014313,
          "clearcoatRoughnessFactor": 0.04
        },
        "KHR_materials_transmission": {
          "transmissionFactor": 0.6942664218264513
        }
      },
      "name": "syrup",
      "pbrMetallicRoughness": {
        "baseColorFactor": [
          0.8928293248917687,
          0.5057679012415791,
          0.03374767320682573,
          0.30573357817354874
        ]
      }
    }
  ],
  "meshes": [
    {
      "name": "Object_0",
      "primitives": [
        {
          "attributes": {
            "NORMAL": 1,
            "POSITION": 0,
            "TEXCOORD_0": 2
          },
          "indices": 3,
          "material": 0,
          "mode": 4
        }
      ]
    },
    {
      "name": "Object_1",
      "primitives": [
        {
          "attributes": {
            "NORMAL": 5,
            "POSITION": 4,
            "TEXCOORD_0": 6
          },
          "indices": 7,
          "material": 1,
          "mode": 4
        }
      ]
    },
    {
      "name": "Object_2",
      "primitives": [
        {
          "attributes": {
            "NORMAL": 9,
            "POSITION": 8
          },
          "indices": 10,
          "material": 2,
          "mode": 4
        }
      ]
    }
  ],
  "nodes": [
    {
      "children": [
        1
      ],
      "matrix": [
        1.0,
        0.0,
        0.0,
        0.0,
        0.0,
        2.220446049250313e-16,
        -1.0,
        0.0,
        0.0,
        1.0,
        2.220446049250313e-16,
        0.0,
        0.0,
        0.0,
        0.0,
        1.0
      ],
      "name": "Sketchfab_model"
    },
    {
      "children": [
        2
      ],
      "name": "root"
    },
    {
      "children": [
        3,
        5,
        7
      ],
      "matrix": [
        1.0,
        0.0,
        0.0,
        0.0,
        0.0,
        2.220446049250313e-16,
        1.0,
        0.0,
        0.0,
        -1.0,
        2.220446049250313e-16,
        0.0,
        0.0,
        0.0,
        0.0,
        1.0
      ],
      "name": "GLTF_SceneRootNode"
    },
    {
      "children": [
        4
      ],
      "matrix": [
        0.0,
        0.0,
        -1.0,
        0.0,
        0.0,
        0.8810743689537048,
        0.0,
        0.0,
        1.0,
        0.0,
        0.0,
        0.0,
        0.0,
        0.1541661024093628,
        0.02466043084859848,
        1.0
      ],
      "name": "Circle.001_2"
    },
    {
      "mesh": 0,
      "name": "Object_4"
    },
    {
      "children": [
        6
      ],
      "name": "Circle.006_3"
    },
    {
      "mesh": 1,
      "name": "Object_6"
    },
    {
      "children": [
        8
      ],
      "matrix": [
        2.598477840423584,
        0.0,
        0.0,
        0.0,
        0.0,
        2.598477840423584,
        0.0,
        0.0,
        0.0,
        0.0,
        2.598477840423584,
        0.0,
        0.0,
        2.5391812324523926,
        0.0,
        1.0
      ],
      "name": "Cube_4"
    },
    {
      "mesh": 2,
      "name": "Object_8"
    }
  ],
  "samplers": [
    {
      "magFilter": 9729,
      "minFilter": 9987,
      "wrapS": 10497,
      "wrapT": 10497
    }
  ],
  "scene": 0,
  "scenes": [
    {
      "name": "Sketchfab_Scene",
      "nodes": [
        0
      ]
    }
  ],
  "textures": [
    {
      "sampler": 0,
      "source": 0
    }
  ]
}
