{
  "accessors": [
    {
      "bufferView": 2,
      "componentType": 5126,
      "count": 3764,
      "max": [
        17.04365348815918,
        17.043655395507813,
        2.4836370944976807
      ],
      "min": [
        -17.04365348815918,
        -17.043655395507813,
        -0.0030509999487549067
      ],
      "type": "VEC3"
    },
    {
      "bufferView": 2,
      "byteOffset": 45168,
      "componentType": 5126,
      "count": 3764,
      "max": [
        0.9914817810058594,
        0.991483211517334,
        1.0
      ],
      "min": [
        -0.991483747959137,
        -0.9940126538276672,
        -1.0
      ],
      "type": "VEC3"
    },
    {
      "bufferView": 1,
      "componentType": 5126,
      "count": 3764,
      "max": [
        0.8937289714813232,
        0.7448040246963501
      ],
      "min": [
        0.23406100273132324,
        0.00017499999376013875
      ],
      "type": "VEC2"
    },
    {
      "bufferView": 0,
      "componentType": 5125,
      "count": 22020,
      "type": "SCALAR"
    },
    {
      "bufferView": 2,
      "byteOffset": 90336,
      "componentType": 5126,
      "count": 21552,
      "max": [
        11.722859382629395,
        4.901388168334961,
        13.099501609802246
      ],
      "min": [
        -9.879138946533203,
        -6.635261058807373,
        0.3155910074710846
      ],
      "type": "VEC3"
    },
    {
      "bufferView": 2,
      "byteOffset": 348960,
      "componentType": 5126,
      "count": 21552,
      "max": [
        1.0,
        0.9999987483024597,
        0.9999932646751404
      ],
      "min": [
        -0.9997842311859131,
        -0.9999876618385315,
        -0.9211090207099915
      ],
      "type": "VEC3"
    },
    {
      "bufferView": 1,
      "byteOffset": 30112,
      "componentType": 5126,
      "count": 21552,
      "max": [
        0.9982900023460388,
        0.9986010193824768
      ],
      "min": [
        0.0001740000006975606,
        0.0001740000006975606
      ],
      "type": "VEC2"
    },
    {
      "bufferView": 0,
      "byteOffset": 88080,
      "componentType": 5125,
      "count": 80022,
      "type": "SCALAR"
    }
  ],
  "asset": {
    "extras": {
      "author": "jjagdishwar (https://sketchfab.com/jjagdishwar)",
      "license": "CC-BY-4.0 (http://creativecommons.org/licenses/by/4.0/)",
      "source": "https://sketchfab.com/3d-models/redvelvet-42c94a2e912e4cfd8ba8a054453cd653",
      "title": "RedVelvet"
    },
    "generator": "Sketchfab-12.68.0",
    "version": "2.0"
  },
  "bufferViews": [
    {
      "buffer": 0,
      "byteLength": 408168,
      "name": "floatBufferViews",
      "target": 34963
    },
    {
      "buffer": 0,
      "byteLength": 202528,
      "byteOffset": 408168,
      "byteStride": 8,
      "name": "floatBufferViews",
      "target": 34962
    },
    {
      "buffer": 0,
      "byteLength": 607584,
      "byteOffset": 610696,
      "byteStride": 12,
      "name": "floatBufferViews",
      "target": 34962
    }
  ],
  "buffers": [
    {
      "byteLength": 1218280,
      "uri": "scene.bin"
    }
  ],
  "extensionsUsed": [
    "KHR_materials_unlit"
  ],
  "images": [
    {
      "uri": "textures/lambert3SG_baseColor.png"
    }
  ],
  "materials": [
    {
      "doubleSided": true,
      "extensions": {
        "KHR_materials_unlit": {}
      },
      "name": "lambert3SG",
      "pbrMetallicRoughness": {
        "baseColorTexture": {
          "index": 0
        },
        "metallicFactor": 0.0
      }
    }
  ],
  "meshes": [
    {
      "name": "Object_0",
      "primitives": [
        {
          "attributes": {
            "NORMAL": 1,
            "POSITION": 0,
            "TEXCOORD_0": 2
          },
          "indices": 3,
          "material": 0,
          "mode": 4
        }
      ]
    },
    {
      "name": "Object_1",
      "primitives": [
        {
          "attributes": {
            "NORMAL": 5,
            "POSITION": 4,
            "TEXCOORD_0": 6
          },
          "indices": 7,
          "material": 0,
          "mode": 4
        }
      ]
    }
  ],
  "nodes": [
    {
      "children": [
        1
      ],
      "matrix": [
        0.008471635170280933,
        0.0,
        0.0,
        0.0,
        0.0,
        1.88108088445403e-18,
        -0.008471635170280933,
        0.0,
        0.0,
        0.008471635170280933,
        1.88108088445403e-18,
        0.0,
        0.0,
        0.0,
        0.0,
        1.0
      ],
      "name": "Sketchfab_model"
    },
    {
      "children": [
        2,
        3
      ],
      "name": "RedVelvet.obj.cleaner.materialmerger.gles"
    },
    {
      "mesh": 0,
      "name": "Object_2"
    },
    {
      "mesh": 1,
      "name": "Object_3"
    }
  ],
  "samplers": [
    {
      "magFilter": 9729,
      "minFilter": 9987,
      "wrapS": 10497,
      "wrapT": 10497
    }
  ],
  "scene": 0,
  "scenes": [
    {
      "name": "Sketchfab_Scene",
      "nodes": [
        0
      ]
    }
  ],
  "textures": [
    {
      "sampler": 0,
      "source": 0
    }
  ]
}
